<?xml version="1.0" standalone="no"?>
<!DOCTYPE svg PUBLIC "-//W3C//DTD SVG 20010904//EN"
 "http://www.w3.org/TR/2001/REC-SVG-20010904/DTD/svg10.dtd">
<svg version="1.0" xmlns="http://www.w3.org/2000/svg"
 width="177.000000pt" height="118.000000pt" viewBox="0 0 177.000000 118.000000"
 preserveAspectRatio="xMidYMid meet">
<metadata>
Created by potrace 1.10, written by Peter Selinger 2001-2011
</metadata>
<g transform="translate(0.000000,118.000000) scale(0.100000,-0.100000)"
fill="#ffffff" stroke="none">
<path d="M965 1044 c-101 -19 -215 -63 -215 -81 0 -10 5 -13 18 -8 293 119
543 82 606 -90 11 -30 15 -34 15 -17 2 55 -60 133 -134 170 -85 42 -171 50
-290 26z"/>
<path d="M622 983 c-19 -8 -43 -60 -35 -80 12 -34 36 -53 67 -53 37 0 49 7 65
37 17 33 14 51 -14 78 -23 23 -53 30 -83 18z m66 -64 c4 -31 -19 -44 -49 -29
-19 11 -26 40 -12 54 4 4 19 6 33 4 19 -2 26 -10 28 -29z"/>
<path d="M502 868 c-28 -28 -7 -78 33 -78 40 0 61 50 33 78 -7 7 -21 12 -33
12 -12 0 -26 -5 -33 -12z"/>
<path d="M1500 771 c-21 -6 -24 -12 -22 -39 3 -30 1 -32 -27 -32 -24 0 -31 -4
-31 -20 0 -16 7 -20 31 -20 l30 0 -2 -87 c-3 -104 8 -130 55 -138 54 -11 81
-3 84 24 3 20 0 23 -19 18 -48 -13 -59 6 -59 98 l0 85 40 0 c33 0 40 3 40 20
0 17 -7 20 -40 20 -40 0 -40 0 -40 40 0 22 -3 40 -7 39 -5 -1 -19 -4 -33 -8z
m25 -81 c8 -13 -14 -42 -26 -34 -5 3 -9 14 -9 25 0 20 24 26 35 9z"/>
<path d="M213 755 c-54 -23 -70 -82 -34 -126 11 -14 50 -35 92 -49 82 -29 103
-50 76 -77 -20 -21 -122 -23 -169 -4 -27 10 -28 10 -28 -24 0 -33 0 -34 56
-41 110 -13 199 11 222 61 29 63 -2 105 -102 138 -80 27 -102 50 -71 73 15 12
37 15 88 11 l67 -4 0 28 0 29 -82 0 c-48 -1 -97 -7 -115 -15z m19 -103 c19
-23 -2 -27 -24 -4 -20 19 -20 24 -8 49 l14 28 4 -30 c2 -16 9 -36 14 -43z
m160 -89 c13 -12 14 -20 6 -44 -12 -35 -27 -39 -21 -5 3 13 -3 36 -14 52 -19
29 -8 28 29 -3z"/>
<path d="M635 700 c-12 -4 -27 -15 -34 -24 -19 -22 -34 -20 -26 4 6 17 2 20
-29 20 l-36 0 0 -195 0 -195 36 0 36 0 -4 80 c-2 44 -2 80 0 80 2 0 15 -9 29
-20 53 -41 150 -14 185 51 21 39 23 103 5 139 -27 54 -106 83 -162 60z m85
-60 c29 -29 27 -100 -4 -136 -28 -34 -84 -38 -116 -9 -29 26 -28 110 2 142 28
30 89 32 118 3z"/>
<path d="M945 692 c-55 -26 -79 -65 -79 -127 0 -86 54 -135 147 -135 66 0 107
17 107 45 0 23 0 23 -39 8 -66 -26 -151 5 -151 55 0 15 10 17 105 14 l105 -4
0 36 c0 72 -37 112 -112 122 -30 3 -55 -1 -83 -14z m109 -43 c14 -11 26 -29
26 -40 0 -17 -8 -19 -75 -19 -78 0 -88 7 -62 41 32 41 73 48 111 18z"/>
<path d="M1318 694 c-16 -8 -28 -21 -28 -29 0 -8 -5 -15 -11 -15 -7 0 -9 10
-5 25 6 23 4 25 -29 25 l-35 0 0 -133 0 -133 35 4 35 4 0 85 c0 77 2 86 26
110 20 20 32 24 55 19 28 -5 30 -4 27 22 -4 32 -30 39 -70 16z"/>
<path d="M1095 283 c-143 -97 -363 -151 -500 -123 -77 16 -110 33 -162 83 -53
51 -56 42 -6 -14 44 -48 87 -72 174 -94 74 -20 133 -16 254 15 122 31 318 135
288 153 -5 3 -27 -6 -48 -20z"/>
</g>
</svg>
