<?xml version="1.0" standalone="no"?>
<!DOCTYPE svg PUBLIC "-//W3C//DTD SVG 20010904//EN"
 "http://www.w3.org/TR/2001/REC-SVG-20010904/DTD/svg10.dtd">
<svg version="1.0" xmlns="http://www.w3.org/2000/svg"
 width="177.000000pt" height="118.000000pt" viewBox="0 0 177.000000 118.000000"
 preserveAspectRatio="xMidYMid meet">
<metadata>
Created by potrace 1.10, written by Peter Selinger 2001-2011
</metadata>
<g transform="translate(0.000000,118.000000) scale(0.050000,-0.050000)"
fill="#ffffff" stroke="none">
<path d="M1990 2106 c-296 -66 -490 -137 -490 -180 0 -34 -6 -35 220 48 427
157 885 52 1020 -234 l43 -90 -11 78 c-35 257 -443 454 -782 378z"/>
<path d="M1223 1945 c-104 -88 -47 -245 88 -245 137 0 195 136 100 231 -58 58
-130 63 -188 14z"/>
<path d="M992 1717 c-52 -74 32 -170 120 -136 55 20 71 85 35 138 -38 53 -117
53 -155 -2z"/>
<path d="M530 1542 c-301 -53 -289 -287 20 -388 299 -97 124 -244 -185 -155
-64 18 -65 17 -65 -48 0 -58 8 -68 62 -78 478 -96 729 247 289 394 -245 82
-224 186 34 166 l135 -11 0 59 c0 53 -6 59 -65 59 -36 0 -83 4 -105 8 -22 4
-76 2 -120 -6z"/>
<path d="M2984 1539 c-36 -14 -45 -32 -40 -74 5 -47 -2 -56 -49 -61 -75 -9
-77 -79 -2 -88 52 -6 52 -7 55 -193 3 -225 31 -263 194 -263 94 0 98 3 98 55
0 50 -6 55 -75 55 l-75 0 -6 177 -6 177 81 -7 c73 -7 81 -4 81 37 0 40 -10 46
-80 46 -80 0 -80 0 -80 80 0 84 -13 92 -96 59z"/>
<path d="M1260 1399 c-27 -11 -61 -35 -75 -54 -22 -29 -25 -28 -25 11 0 37
-11 44 -70 44 l-70 0 0 -390 0 -390 72 0 71 0 -6 160 c-4 88 -4 160 0 160 4 0
30 -18 58 -40 112 -88 307 -31 374 110 112 236 -98 484 -329 389z m180 -119
c106 -106 22 -320 -125 -320 -116 0 -155 42 -155 167 0 173 168 265 280 153z"/>
<path d="M1881 1385 c-354 -181 -69 -649 308 -505 102 38 70 122 -33 86 -139
-47 -296 10 -296 109 0 32 21 34 210 29 l210 -7 0 73 c0 201 -207 313 -399
215z m244 -109 c64 -74 45 -89 -115 -90 -163 -2 -184 16 -105 88 83 75 156 76
220 2z"/>
<path d="M2609 1371 c-45 -45 -49 -46 -49 -10 0 31 -14 39 -70 39 l-70 0 0
-270 0 -270 70 0 70 0 0 178 c0 216 31 271 147 268 68 -2 73 2 73 56 0 77 -97
83 -171 9z"/>
<path d="M2125 532 c-476 -284 -1045 -296 -1275 -27 -75 88 -94 81 -33 -10
136 -207 467 -295 815 -218 259 57 668 251 668 317 0 38 -16 33 -175 -62z"/>
</g>
</svg>
